<?xml version="1.0" encoding="UTF-8" standalone="no"?>
<!DOCTYPE svg PUBLIC "-//W3C//DTD SVG 1.1//EN" "http://www.w3.org/Graphics/SVG/1.1/DTD/svg11.dtd">
<svg width="100%" height="100%" viewBox="0 0 333 126" version="1.1" xmlns="http://www.w3.org/2000/svg" xmlns:xlink="http://www.w3.org/1999/xlink" xml:space="preserve" xmlns:serif="http://www.serif.com/" style="fill-rule:evenodd;clip-rule:evenodd;stroke-linejoin:round;stroke-miterlimit:2;">
    <path d="M96.051,60.681C96.236,60.597 96.188,60.404 96.214,60.268C96.887,56.733 99.052,54.383 102.173,52.809C103.945,51.916 105.825,51.313 107.755,50.852C110.984,50.081 114.239,49.944 117.553,50.105C120.95,50.271 124.109,51.323 127.318,52.238C127.957,52.42 128.602,52.584 129.249,52.736C130.278,52.977 131.125,52.627 131.68,51.725C131.917,51.339 132.122,50.932 132.324,50.525C132.519,50.13 132.841,49.975 133.261,49.982C133.681,49.988 134.101,50.003 134.522,50.01C135.247,50.022 135.441,50.207 135.497,50.941C135.631,52.703 135.678,54.468 135.731,56.234C135.79,58.192 135.885,60.148 135.943,62.105C135.977,63.273 135.621,63.625 134.468,63.622C132.438,63.617 132.806,63.805 132.024,62.043C130.809,59.31 128.818,57.276 126.289,55.735C121.319,52.706 116.023,52.202 110.477,53.74C109.733,53.946 109.056,54.328 108.412,54.756C106.316,56.151 106.151,58.63 108.077,60.247C109.002,61.024 110.03,61.652 111.14,62.158C114.171,63.537 117.339,64.532 120.478,65.62C123.747,66.753 127.066,67.758 130.223,69.194C132.347,70.161 134.416,71.24 136.115,72.88C138.358,75.044 139.356,77.615 138.729,80.762C138.357,82.63 137.385,84.106 136.112,85.449C134.52,87.126 132.515,88.14 130.44,89.06C129.201,89.609 127.905,89.946 126.597,90.277C123.972,90.942 121.315,91.37 118.609,91.363C116.983,91.359 115.35,91.485 113.727,91.225C110.611,90.727 107.568,89.922 104.528,89.1C103.218,88.745 101.926,88.547 100.682,89.354C100.083,89.743 99.627,90.27 99.15,90.78C98.673,91.29 97.235,91.571 96.631,91.248C96.307,91.075 96.257,90.782 96.258,90.445C96.265,88.362 96.261,86.278 96.261,84.195C96.261,81.778 96.26,79.362 96.262,76.946C96.262,76.218 96.465,76.015 97.196,76.005C97.599,75.999 98.003,76.002 98.406,76.004C98.882,76.008 99.221,76.221 99.339,76.691C100.25,80.33 102.678,82.851 105.547,85.023C107.579,86.562 109.935,87.378 112.412,87.898C115.094,88.462 117.762,88.393 120.436,87.851C122.129,87.507 123.754,87 125.229,86.073C125.921,85.638 126.509,85.098 126.989,84.44C127.842,83.269 127.864,82.028 127.027,80.838C126.359,79.887 125.447,79.225 124.429,78.675C121.997,77.361 119.384,76.524 116.76,75.711C112.714,74.458 108.714,73.078 104.824,71.4C102.516,70.404 100.489,68.969 98.69,67.23C97.328,65.915 96.534,64.28 96.241,62.404C96.206,62.179 96.259,61.913 96.051,61.731L96.051,60.681L96.051,60.681Z" style="fill:rgb(1,113,189);fill-rule:nonzero;"/>
    <path d="M204.627,76.966C204.627,79.487 204.625,82.008 204.627,84.529C204.629,86.406 205.933,87.411 207.766,86.961C208.194,86.855 208.598,86.693 208.992,86.502C209.295,86.354 209.607,86.327 209.885,86.536C210.202,86.773 210.354,87.068 210.036,87.422C209.849,87.629 209.666,87.845 209.452,88.022C208.008,89.227 206.382,90.042 204.549,90.532C202.371,91.114 200.174,91.413 197.951,91.141C195.728,90.869 193.97,89.772 192.943,87.695C192.631,87.064 192.458,86.983 191.853,87.374C189.488,88.905 186.857,89.837 184.18,90.575C181.007,91.449 177.788,91.558 174.642,90.31C173.143,89.715 171.955,88.749 171.186,87.318C170.486,86.015 170.598,84.716 171.341,83.475C172.361,81.771 173.905,80.592 175.581,79.636C178.526,77.955 181.739,76.905 184.967,75.905C187.289,75.185 189.609,74.462 191.947,73.796C192.635,73.6 192.735,73.419 192.735,72.695C192.736,71.593 192.78,70.487 192.724,69.387C192.656,68.077 192.169,67.014 190.866,66.415C188.454,65.306 185.964,65.264 183.423,65.762C182.824,65.88 182.334,66.231 181.898,66.648C181.364,67.16 181.349,67.648 181.892,68.193C182.361,68.664 182.882,69.083 183.359,69.546C184.432,70.586 184.339,72.366 183.136,73.228C180.198,75.333 176.208,75.097 173.499,73.274C173.046,72.969 172.688,72.558 172.344,72.135C171.63,71.256 171.618,70.302 172.08,69.332C172.649,68.137 173.513,67.187 174.63,66.466C177.032,64.915 179.692,64.038 182.458,63.414C185.717,62.678 189.032,62.518 192.335,62.73C195.928,62.961 199.375,63.894 202.461,65.852C203.525,66.527 204.327,67.437 204.583,68.725C204.624,68.928 204.625,69.142 204.625,69.351C204.628,71.889 204.627,74.428 204.627,76.966L204.627,76.966ZM192.63,80.434L192.63,77.65C192.63,76.26 192.395,76.119 191.098,76.72C189.893,77.279 188.674,77.811 187.482,78.398C186.078,79.09 184.763,79.928 183.723,81.119C182.285,82.767 182.842,85.002 184.871,85.771C187.387,86.724 189.749,86.287 191.998,84.936C192.491,84.64 192.634,84.177 192.632,83.637C192.627,82.569 192.63,81.502 192.63,80.434L192.63,80.434Z" style="fill:rgb(1,113,189);fill-rule:nonzero;"/>
    <path d="M237.483,53.441C236.304,52.945 235.138,52.404 233.797,52.782C232.582,53.124 232.109,53.715 232.108,54.964C232.106,57.625 232.106,60.287 232.108,62.948C232.109,63.757 232.205,63.848 233.018,63.849C234.333,63.85 235.648,63.845 236.963,63.851C237.882,63.854 238.191,64.17 238.193,65.086C238.195,65.664 238.196,66.242 238.193,66.82C238.189,67.536 237.932,67.803 237.211,67.807C235.808,67.814 234.405,67.808 233.002,67.809C232.214,67.81 232.108,67.908 232.108,68.675C232.107,74.663 232.105,80.651 232.109,86.639C232.109,88.092 232.734,88.707 234.202,88.716C235.254,88.722 236.307,88.714 237.359,88.718C238.112,88.72 238.289,88.877 238.347,89.619C238.367,89.878 238.347,90.142 238.325,90.402C238.292,90.794 238.042,90.986 237.674,91.038C237.536,91.057 237.393,91.046 237.253,91.046C229.783,91.046 222.314,91.046 214.844,91.046C214.458,91.046 214.015,91.103 213.831,90.674C213.626,90.196 213.632,89.668 213.847,89.19C213.983,88.887 214.313,88.855 214.622,88.856C215.692,88.856 216.761,88.859 217.831,88.855C219.242,88.849 219.917,88.167 219.917,86.75C219.918,80.727 219.918,74.704 219.917,68.681C219.917,67.877 219.851,67.81 219.049,67.809C217.664,67.808 216.279,67.812 214.893,67.808C214.094,67.805 213.857,67.573 213.847,66.778C213.838,66.13 213.835,65.482 213.848,64.835C213.863,64.107 214.107,63.859 214.841,63.853C216.279,63.841 217.717,63.851 219.155,63.848C219.817,63.847 219.905,63.749 219.919,63.087C219.948,61.636 219.893,60.19 220.071,58.737C220.338,56.555 221.332,54.787 222.914,53.335C224.869,51.54 227.14,50.337 229.753,49.743C233.274,48.942 236.555,49.631 239.732,51.154C239.889,51.23 240.047,51.305 240.205,51.38C239.118,51.83 238.233,52.547 237.483,53.441L237.483,53.441Z" style="fill:rgb(1,113,189);fill-rule:nonzero;"/>
    <path d="M157.923,76.385C157.923,78.871 157.911,81.357 157.927,83.843C157.941,85.947 158.951,86.357 160.474,86.506C162.384,86.693 164.147,86.176 165.702,85.015C166.236,84.617 167.528,85.056 167.709,85.682C167.795,85.979 167.604,86.18 167.447,86.388C165.484,88.995 162.962,90.676 159.699,91.271C156.399,91.873 153.163,91.815 150.049,90.516C147.682,89.53 145.738,88.038 145.046,85.381C144.927,84.923 144.871,84.457 144.872,83.98C144.877,78.903 144.875,73.826 144.875,68.749C144.875,67.904 144.782,67.81 143.946,67.809C142.807,67.808 141.667,67.813 140.527,67.807C139.783,67.803 139.519,67.534 139.51,66.79C139.505,66.422 139.509,66.055 139.509,65.687C139.509,64.912 139.688,64.705 140.431,64.438C142.567,63.667 144.714,62.929 146.779,61.97C149.782,60.576 152.149,58.456 154.022,55.755C155.315,53.89 154.802,54.211 157.005,54.185C157.777,54.176 157.923,54.335 157.923,55.105C157.924,57.731 157.923,60.357 157.924,62.983C157.924,63.769 158.006,63.849 158.805,63.849C161.348,63.849 163.89,63.848 166.432,63.85C167.396,63.85 167.614,64.073 167.605,65.02C167.6,65.545 167.599,66.07 167.605,66.595C167.614,67.441 167.26,67.806 166.395,67.808C163.871,67.811 161.346,67.808 158.821,67.809C158.01,67.809 157.924,67.896 157.924,68.717C157.923,71.273 157.923,73.829 157.923,76.385L157.923,76.385Z" style="fill:rgb(1,113,189);fill-rule:nonzero;"/>
    <path d="M237.483,53.441C238.233,52.547 239.118,51.83 240.205,51.38C242.271,50.756 244.19,51.01 245.895,52.383C247.673,53.815 248.36,56.326 247.6,58.508C246.838,60.695 244.75,62.18 242.469,62.285C239.564,62.418 237.043,60.308 236.587,57.698C236.319,56.165 236.66,54.75 237.483,53.441Z" style="fill:rgb(230,53,87);fill-rule:nonzero;"/>
    <path d="M262.982,56.6C262.615,56.549 262.014,56.806 261.758,56.502C261.519,56.218 261.633,55.638 261.593,55.188C261.015,48.763 257.945,43.828 252.58,40.308C249.673,38.401 246.418,37.521 242.963,37.343C242.192,37.303 242.192,37.315 242.192,36.529C242.192,35.969 242.219,35.407 242.183,34.849C242.156,34.441 242.306,34.355 242.689,34.36C246.88,34.424 250.741,35.602 254.224,37.904C259.543,41.419 262.897,46.296 264.147,52.572C264.383,53.758 264.456,54.962 264.507,56.168C264.522,56.518 264.407,56.634 264.062,56.606C263.731,56.578 263.396,56.6 262.982,56.6L262.982,56.6Z" style="fill:rgb(230,53,87);fill-rule:nonzero;"/>
    <path d="M257.399,56.6C257.223,56.6 257.048,56.602 256.873,56.599C255.939,56.584 256.07,56.743 256.012,55.81C255.615,49.402 250.718,44.065 244.358,43.13C243.753,43.041 243.144,42.973 242.534,42.929C242.255,42.909 242.181,42.8 242.187,42.541C242.202,41.964 242.217,41.385 242.183,40.81C242.16,40.407 242.31,40.31 242.691,40.305C245.746,40.271 248.529,41.17 251.061,42.82C255.219,45.529 257.802,49.301 258.561,54.246C258.661,54.9 258.668,55.569 258.732,56.229C258.762,56.537 258.634,56.624 258.345,56.605C258.031,56.584 257.714,56.6 257.399,56.6L257.399,56.6Z" style="fill:rgb(230,53,87);fill-rule:nonzero;"/>
    <path d="M242.192,47.005L242.192,46.847C242.192,46.066 242.579,45.716 243.355,45.797C248.037,46.29 251.937,49.817 252.883,54.42C253.006,55.021 253.047,55.63 253.057,56.245C253.062,56.58 252.946,56.665 252.633,56.651C252.161,56.628 251.686,56.624 251.215,56.652C250.874,56.672 250.738,56.59 250.696,56.216C250.506,54.54 249.992,52.975 248.965,51.61C247.452,49.6 245.364,48.623 242.927,48.292C242.194,48.193 242.192,48.207 242.192,47.477C242.192,47.32 242.192,47.162 242.192,47.005L242.192,47.005Z" style="fill:rgb(230,53,87);fill-rule:nonzero;"/>
</svg>
